<svg width="217" height="215" viewBox="0 0 217 215" fill="none" xmlns="http://www.w3.org/2000/svg">
<ellipse cx="8.23597" cy="204.25" rx="8.23597" ry="7.97581" fill="white"/>
<ellipse cx="54.7871" cy="160.556" rx="8.23597" ry="7.97581" fill="white"/>
<ellipse cx="54.7871" cy="204.25" rx="8.23597" ry="7.97581" fill="white"/>
<ellipse cx="8.23597" cy="160.556" rx="8.23597" ry="7.97581" fill="white"/>
<ellipse cx="206.257" cy="204.597" rx="10.7426" ry="10.4032" fill="white"/>
<ellipse cx="206.257" cy="160.903" rx="10.7426" ry="10.4032" fill="white"/>
<ellipse cx="105.635" cy="202.863" rx="8.95215" ry="8.66936" fill="white"/>
<ellipse cx="155.409" cy="161.597" rx="10.0264" ry="9.70968" fill="white"/>
<ellipse cx="155.409" cy="205.29" rx="10.0264" ry="9.70968" fill="white"/>
<ellipse cx="105.635" cy="159.169" rx="8.95215" ry="8.66936" fill="white"/>
<ellipse cx="10.7426" cy="12.4839" rx="10.7426" ry="10.4032" fill="white"/>
<ellipse cx="57.2937" cy="12.4839" rx="10.7426" ry="10.4032" fill="white"/>
<ellipse cx="206.257" cy="10.4032" rx="10.7426" ry="10.4032" fill="white"/>
<ellipse cx="107.426" cy="10.4032" rx="10.7426" ry="10.4032" fill="white"/>
<ellipse cx="156.125" cy="11.7903" rx="10.7426" ry="10.4032" fill="white"/>
<ellipse cx="8.95215" cy="112.008" rx="8.95215" ry="8.66936" fill="white"/>
<ellipse cx="56.5775" cy="63.1129" rx="10.0264" ry="9.70968" fill="white"/>
<ellipse cx="55.5033" cy="112.008" rx="8.95215" ry="8.66936" fill="white"/>
<ellipse cx="10.0264" cy="63.1129" rx="10.0264" ry="9.70968" fill="white"/>
<ellipse cx="206.257" cy="111.661" rx="10.7426" ry="10.4032" fill="white"/>
<ellipse cx="206.257" cy="61.7259" rx="10.7426" ry="10.4032" fill="white"/>
<ellipse cx="105.635" cy="109.927" rx="8.95215" ry="8.66936" fill="white"/>
<ellipse cx="155.409" cy="62.4193" rx="10.0264" ry="9.70968" fill="white"/>
<ellipse cx="155.409" cy="112.355" rx="10.0264" ry="9.70968" fill="white"/>
<ellipse cx="106.71" cy="61.0323" rx="10.0264" ry="9.70968" fill="white"/>
</svg>
