<svg width="52" height="60" viewBox="0 0 52 60" fill="none" xmlns="http://www.w3.org/2000/svg">
<rect y="8" width="52" height="52" rx="10" fill="url(#paint0_linear)"/>
<path d="M28.248 43.808V43.28L27.648 43.232V28.328C27.648 27.464 27.416 26.784 26.952 26.288C26.504 25.792 25.88 25.544 25.08 25.544C24.408 25.544 23.864 25.696 23.448 26C23.032 26.304 22.824 26.68 22.824 27.128V29.504C22.824 30.656 22.432 31.552 21.648 32.192C20.88 32.816 19.776 33.128 18.336 33.128C17.104 33.128 16.176 32.856 15.552 32.312C14.944 31.768 14.64 31.016 14.64 30.056C14.64 29.016 15.088 27.992 15.984 26.984C16.88 25.96 18.216 25.112 19.992 24.44C21.768 23.768 23.984 23.432 26.64 23.432C29.808 23.432 32.16 24.048 33.696 25.28C35.248 26.496 36.024 28.144 36.024 30.224V42.2C36.024 42.568 36.104 42.864 36.264 43.088C36.44 43.296 36.696 43.4 37.032 43.4C37.336 43.4 37.568 43.32 37.728 43.16C37.904 43 38.064 42.848 38.208 42.704C38.304 42.592 38.408 42.496 38.52 42.416C38.632 42.336 38.76 42.296 38.904 42.296C39.144 42.296 39.32 42.384 39.432 42.56C39.544 42.736 39.6 42.96 39.6 43.232C39.6 43.856 39.376 44.512 38.928 45.2C38.48 45.872 37.816 46.448 36.936 46.928C36.056 47.392 34.96 47.624 33.648 47.624C32.048 47.624 30.744 47.28 29.736 46.592C28.744 45.888 28.248 44.96 28.248 43.808ZM13.704 41.936C13.704 39.84 14.648 38.168 16.536 36.92C18.424 35.656 21.064 35.024 24.456 35.024C25.448 35.024 26.328 35.104 27.096 35.264C27.88 35.408 28.536 35.616 29.064 35.888L28.392 37.712C27.944 37.488 27.504 37.32 27.072 37.208C26.656 37.096 26.192 37.04 25.68 37.04C24.624 37.04 23.792 37.344 23.184 37.952C22.592 38.544 22.296 39.384 22.296 40.472C22.296 41.576 22.56 42.424 23.088 43.016C23.632 43.592 24.344 43.88 25.224 43.88C25.88 43.88 26.512 43.728 27.12 43.424C27.728 43.12 28.216 42.72 28.584 42.224L29.136 43.88C28.32 45.08 27.168 46.008 25.68 46.664C24.208 47.304 22.64 47.624 20.976 47.624C18.8 47.624 17.04 47.096 15.696 46.04C14.368 44.968 13.704 43.6 13.704 41.936Z" fill="#363636"/>
<defs>
<linearGradient id="paint0_linear" x1="52" y1="8" x2="0" y2="60" gradientUnits="userSpaceOnUse">
<stop stop-color="#FF4444"/>
<stop offset="1" stop-color="#FEC01F" stop-opacity="0.38"/>
</linearGradient>
</defs>
</svg>
