<svg width="243" height="92" viewBox="0 0 243 92" fill="none" xmlns="http://www.w3.org/2000/svg">
<path d="M3 77.0756C12.875 61.1765 22.75 61.1765 32.625 77.0756C42.5 92.9748 52.375 92.9748 62.25 77.0756C72.125 61.1765 82 61.1765 91.875 77.0756C101.75 92.9748 111.625 92.9748 121.5 77.0756C131.375 61.1765 141.25 61.1765 151.125 77.0756C161 92.9748 170.875 92.9748 180.75 77.0756C190.625 61.1765 200.5 61.1765 210.375 77.0756C220.25 92.9748 230.125 92.9748 240 77.0756" stroke="white" stroke-width="6"/>
<path d="M3 14.9244C12.875 -0.974789 22.75 -0.974789 32.625 14.9244C42.5 30.8235 52.375 30.8235 62.25 14.9244C72.125 -0.974789 82 -0.974789 91.875 14.9244C101.75 30.8235 111.625 30.8235 121.5 14.9244C131.375 -0.974789 141.25 -0.974789 151.125 14.9244C161 30.8235 170.875 30.8235 180.75 14.9244C190.625 -0.974789 200.5 -0.974789 210.375 14.9244C220.25 30.8235 230.125 30.8235 240 14.9244" stroke="white" stroke-width="6"/>
<path d="M3 46.0001C12.875 30.1009 22.75 30.1009 32.625 46.0001C42.5 61.8992 52.375 61.8992 62.25 46.0001C72.125 30.1009 82 30.1009 91.875 46.0001C101.75 61.8992 111.625 61.8992 121.5 46.0001C131.375 30.1009 141.25 30.1009 151.125 46.0001C161 61.8992 170.875 61.8992 180.75 46.0001C190.625 30.1009 200.5 30.1009 210.375 46.0001C220.25 61.8992 230.125 61.8992 240 46.0001" stroke="white" stroke-width="6"/>
</svg>
