<svg width="354" height="127" viewBox="0 0 354 127" fill="none" xmlns="http://www.w3.org/2000/svg">
<path d="M4 106.5C18.4167 84.5 32.8333 84.5 47.25 106.5C61.6667 128.5 76.0833 128.5 90.5 106.5C104.917 84.5 119.333 84.5 133.75 106.5C148.167 128.5 162.583 128.5 177 106.5C191.417 84.5 205.833 84.5 220.25 106.5C234.667 128.5 249.083 128.5 263.5 106.5C277.917 84.5 292.333 84.5 306.75 106.5C321.167 128.5 335.583 128.5 350 106.5" stroke="#E2E2E2" stroke-width="8"/>
<path d="M4 20.5C18.4167 -1.5 32.8333 -1.5 47.25 20.5C61.6667 42.5 76.0833 42.5 90.5 20.5C104.917 -1.5 119.333 -1.5 133.75 20.5C148.167 42.5 162.583 42.5 177 20.5C191.417 -1.5 205.833 -1.5 220.25 20.5C234.667 42.5 249.083 42.5 263.5 20.5C277.917 -1.5 292.333 -1.5 306.75 20.5C321.167 42.5 335.583 42.5 350 20.5" stroke="#E2E2E2" stroke-width="8"/>
<path d="M4 63.5C18.4167 41.5 32.8333 41.5 47.25 63.5C61.6667 85.5 76.0833 85.5 90.5 63.5C104.917 41.5 119.333 41.5 133.75 63.5C148.167 85.5 162.583 85.5 177 63.5C191.417 41.5 205.833 41.5 220.25 63.5C234.667 85.5 249.083 85.5 263.5 63.5C277.917 41.5 292.333 41.5 306.75 63.5C321.167 85.5 335.583 85.5 350 63.5" stroke="#E2E2E2" stroke-width="8"/>
</svg>
